<svg width="25" height="24" viewBox="0 0 25 24" fill="none" xmlns="http://www.w3.org/2000/svg">
<path d="M12.9174 5.8454C9.50949 5.8454 6.76064 8.59208 6.76064 11.9973C6.76064 15.4026 9.50949 18.1492 12.9174 18.1492C16.3254 18.1492 19.0742 15.4026 19.0742 11.9973C19.0742 8.59208 16.3254 5.8454 12.9174 5.8454ZM12.9174 15.9969C10.7151 15.9969 8.91471 14.2032 8.91471 11.9973C8.91471 9.79141 10.7098 7.99777 12.9174 7.99777C15.1251 7.99777 16.9201 9.79141 16.9201 11.9973C16.9201 14.2032 15.1197 15.9969 12.9174 15.9969ZM20.7621 5.59375C20.7621 6.39152 20.1191 7.02867 19.326 7.02867C18.5276 7.02867 17.89 6.38617 17.89 5.59375C17.89 4.80134 18.533 4.15884 19.326 4.15884C20.1191 4.15884 20.7621 4.80134 20.7621 5.59375ZM24.8398 7.05008C24.7487 5.12794 24.3093 3.42532 22.9001 2.02253C21.4962 0.619743 19.7922 0.180703 17.8686 0.0843279C15.886 -0.0281093 9.94352 -0.0281093 7.96092 0.0843279C6.04262 0.175349 4.33866 0.614389 2.9294 2.01718C1.52015 3.41997 1.08612 5.12259 0.989668 7.04473C0.877142 9.02577 0.877142 14.9635 0.989668 16.9446C1.08076 18.8667 1.52015 20.5693 2.9294 21.9721C4.33866 23.3749 6.03726 23.8139 7.96092 23.9103C9.94352 24.0228 15.886 24.0228 17.8686 23.9103C19.7922 23.8193 21.4962 23.3803 22.9001 21.9721C24.304 20.5693 24.7434 18.8667 24.8398 16.9446C24.9523 14.9635 24.9523 9.03112 24.8398 7.05008ZM22.2785 19.0702C21.8606 20.1196 21.0514 20.9281 19.9958 21.351C18.4151 21.9775 14.6643 21.8329 12.9174 21.8329C11.1706 21.8329 7.41437 21.9721 5.839 21.351C4.78876 20.9334 3.97964 20.1249 3.55633 19.0702C2.9294 17.4907 3.07408 13.7428 3.07408 11.9973C3.07408 10.2519 2.93476 6.49861 3.55633 4.92448C3.97429 3.87507 4.7834 3.06659 5.839 2.64361C7.41972 2.01718 11.1706 2.16174 12.9174 2.16174C14.6643 2.16174 18.4205 2.02253 19.9958 2.64361C21.0461 3.06124 21.8552 3.86972 22.2785 4.92448C22.9054 6.50396 22.7608 10.2519 22.7608 11.9973C22.7608 13.7428 22.9054 17.496 22.2785 19.0702Z" fill="black"/>
</svg>
