<svg width="105" height="52" viewBox="0 0 105 52" fill="none" xmlns="http://www.w3.org/2000/svg">
<path d="M2.20813 51.24C1.67479 51.24 1.30146 51.0533 1.08813 50.68C0.874792 50.3067 0.768125 49.9067 0.768125 49.48C0.821459 48.5733 1.03479 48.0667 1.40813 47.96C1.78146 47.8533 2.23479 47.8 2.76813 47.8C4.47479 47.8 5.67479 47.5067 6.36813 46.92C7.06146 46.28 7.48813 45.5067 7.64813 44.6C7.86146 43.64 7.96813 42.6533 7.96813 41.64V9.96C7.96813 8.94667 7.86146 7.96 7.64813 7C7.48813 6.04 7.06146 5.26666 6.36813 4.68C5.67479 4.04 4.47479 3.72 2.76813 3.72C2.23479 3.72 1.78146 3.66666 1.40813 3.56C1.03479 3.45333 0.821459 2.94666 0.768125 2.04C0.768125 1.61333 0.874792 1.21333 1.08813 0.839997C1.30146 0.466666 1.67479 0.28 2.20813 0.28C3.91479 0.333332 5.51479 0.386665 7.00813 0.439998C8.55479 0.49333 10.1281 0.519997 11.7281 0.519997H25.4881C29.8081 0.573329 33.3015 1.24 35.9681 2.52C38.6881 3.8 40.6615 5.42667 41.8881 7.4C43.1148 9.37333 43.7281 11.4267 43.7281 13.56C43.7281 16.3867 42.5815 19.0533 40.2881 21.56C38.0481 24.0667 34.8748 25.8533 30.7681 26.92C32.7948 30.12 34.8481 33.3467 36.9281 36.6C39.0081 39.8 41.4081 42.8133 44.1281 45.64C44.8748 46.2267 45.5948 46.7067 46.2881 47.08C47.0348 47.4533 47.9148 47.6933 48.9281 47.8C49.3548 47.8533 49.7815 47.9333 50.2081 48.04C50.6348 48.0933 50.8748 48.5733 50.9281 49.48C50.9281 49.9067 50.8215 50.3067 50.6081 50.68C50.3948 51.0533 50.0215 51.24 49.4881 51.24C48.3681 51.1867 47.4615 51.1333 46.7681 51.08C46.1281 51.08 45.4881 51.0533 44.8481 51C44.2081 51 43.3548 51 42.2881 51C40.1015 50.5733 38.2348 49.8 36.6881 48.68C35.1948 47.56 33.7281 46.0133 32.2881 44.04C30.7948 42.0133 29.4081 39.96 28.1281 37.88C26.8481 35.8 25.5948 33.7733 24.3681 31.8C23.6748 30.68 22.9548 29.88 22.2081 29.4C21.5148 28.8667 20.1815 28.6 18.2081 28.6H15.8881V41.64C15.9415 42.6533 16.0481 43.64 16.2081 44.6C16.3681 45.5067 16.7948 46.28 17.4881 46.92C18.2348 47.5067 19.4348 47.8 21.0881 47.8C21.6215 47.8 22.0748 47.8533 22.4481 47.96C22.8215 48.0667 23.0348 48.5733 23.0881 49.48C23.0881 49.9067 22.9815 50.3067 22.7681 50.68C22.5548 51.0533 22.1815 51.24 21.6481 51.24C18.2348 51.08 14.9015 51 11.6481 51C10.0481 51 8.50146 51 7.00813 51C5.51479 51.0533 3.91479 51.1333 2.20813 51.24ZM15.8881 25.48H22.9281C25.6481 25.48 27.7815 25.1067 29.3281 24.36C30.9281 23.6133 32.1281 22.6533 32.9281 21.48C33.7281 20.3067 34.2348 19.08 34.4481 17.8C34.7148 16.52 34.8481 15.3467 34.8481 14.28C34.8481 12.52 34.4481 10.8133 33.6481 9.16C32.9015 7.50667 31.5415 6.14667 29.5681 5.08C27.6481 4.01333 24.9548 3.48 21.4881 3.48C19.1948 3.48 17.6748 3.93333 16.9281 4.84C16.2348 5.69333 15.8881 7.45333 15.8881 10.12V25.48ZM55.88 51.24C55.3467 51.24 54.9733 51.0533 54.76 50.68C54.5467 50.3067 54.44 49.9067 54.44 49.48C54.4933 48.5733 54.7067 48.0667 55.08 47.96C55.4533 47.8533 55.9067 47.8 56.44 47.8C58.1467 47.8 59.3467 47.5067 60.04 46.92C60.7333 46.28 61.16 45.5067 61.32 44.6C61.5333 43.64 61.64 42.6533 61.64 41.64V9.96C61.64 8.94667 61.5333 7.96 61.32 7C61.16 6.04 60.7333 5.26666 60.04 4.68C59.3467 4.04 58.1467 3.72 56.44 3.72C55.9067 3.72 55.4533 3.66666 55.08 3.56C54.7067 3.45333 54.4933 2.94666 54.44 2.04C54.44 1.61333 54.5467 1.21333 54.76 0.839997C54.9733 0.466666 55.3467 0.28 55.88 0.28C57.5867 0.333332 59.1867 0.386665 60.68 0.439998C62.2267 0.49333 63.8 0.519997 65.4 0.519997H79.16C83.48 0.573329 86.9733 1.24 89.64 2.52C92.36 3.8 94.3333 5.42667 95.56 7.4C96.7867 9.37333 97.4 11.4267 97.4 13.56C97.4 16.3867 96.2533 19.0533 93.96 21.56C91.72 24.0667 88.5467 25.8533 84.44 26.92C86.4667 30.12 88.52 33.3467 90.6 36.6C92.68 39.8 95.08 42.8133 97.8 45.64C98.5467 46.2267 99.2667 46.7067 99.96 47.08C100.707 47.4533 101.587 47.6933 102.6 47.8C103.027 47.8533 103.453 47.9333 103.88 48.04C104.307 48.0933 104.547 48.5733 104.6 49.48C104.6 49.9067 104.493 50.3067 104.28 50.68C104.067 51.0533 103.693 51.24 103.16 51.24C102.04 51.1867 101.133 51.1333 100.44 51.08C99.8 51.08 99.16 51.0533 98.52 51C97.88 51 97.0267 51 95.96 51C93.7733 50.5733 91.9067 49.8 90.36 48.68C88.8667 47.56 87.4 46.0133 85.96 44.04C84.4667 42.0133 83.08 39.96 81.8 37.88C80.52 35.8 79.2667 33.7733 78.04 31.8C77.3467 30.68 76.6267 29.88 75.88 29.4C75.1867 28.8667 73.8533 28.6 71.88 28.6H69.56V41.64C69.6133 42.6533 69.72 43.64 69.88 44.6C70.04 45.5067 70.4667 46.28 71.16 46.92C71.9067 47.5067 73.1067 47.8 74.76 47.8C75.2933 47.8 75.7467 47.8533 76.12 47.96C76.4933 48.0667 76.7067 48.5733 76.76 49.48C76.76 49.9067 76.6533 50.3067 76.44 50.68C76.2267 51.0533 75.8533 51.24 75.32 51.24C71.9067 51.08 68.5733 51 65.32 51C63.72 51 62.1733 51 60.68 51C59.1867 51.0533 57.5867 51.1333 55.88 51.24ZM69.56 25.48H76.6C79.32 25.48 81.4533 25.1067 83 24.36C84.6 23.6133 85.8 22.6533 86.6 21.48C87.4 20.3067 87.9067 19.08 88.12 17.8C88.3867 16.52 88.52 15.3467 88.52 14.28C88.52 12.52 88.12 10.8133 87.32 9.16C86.5733 7.50667 85.2133 6.14667 83.24 5.08C81.32 4.01333 78.6267 3.48 75.16 3.48C72.8667 3.48 71.3467 3.93333 70.6 4.84C69.9067 5.69333 69.56 7.45333 69.56 10.12V25.48Z" fill="black"/>
</svg>
