<svg width="31" height="16" viewBox="0 0 31 16" fill="none" xmlns="http://www.w3.org/2000/svg">
<path d="M0.972336 15.069C0.819003 15.069 0.711669 15.0153 0.650336 14.908C0.589003 14.8007 0.558336 14.6857 0.558336 14.563C0.573669 14.3023 0.635003 14.1567 0.742336 14.126C0.849669 14.0953 0.980003 14.08 1.13334 14.08C1.624 14.08 1.969 13.9957 2.16834 13.827C2.36767 13.643 2.49034 13.4207 2.53634 13.16C2.59767 12.884 2.62834 12.6003 2.62834 12.309V3.201C2.62834 2.90967 2.59767 2.626 2.53634 2.35C2.49034 2.074 2.36767 1.85167 2.16834 1.683C1.969 1.499 1.624 1.407 1.13334 1.407C0.980003 1.407 0.849669 1.39167 0.742336 1.361C0.635003 1.33033 0.573669 1.18467 0.558336 0.923999C0.558336 0.801333 0.589003 0.686333 0.650336 0.578999C0.711669 0.471666 0.819003 0.418 0.972336 0.418C1.463 0.433333 1.923 0.448666 2.35234 0.463999C2.797 0.479332 3.24934 0.486999 3.70934 0.486999H7.66534C8.90734 0.502332 9.91167 0.693999 10.6783 1.062C11.4603 1.43 12.0277 1.89767 12.3803 2.465C12.733 3.03233 12.9093 3.62267 12.9093 4.236C12.9093 5.04867 12.5797 5.81533 11.9203 6.536C11.2763 7.25667 10.364 7.77033 9.18334 8.077C9.766 8.997 10.3563 9.92467 10.9543 10.86C11.5523 11.78 12.2423 12.6463 13.0243 13.459C13.239 13.6277 13.446 13.7657 13.6453 13.873C13.86 13.9803 14.113 14.0493 14.4043 14.08C14.527 14.0953 14.6497 14.1183 14.7723 14.149C14.895 14.1643 14.964 14.3023 14.9793 14.563C14.9793 14.6857 14.9487 14.8007 14.8873 14.908C14.826 15.0153 14.7187 15.069 14.5653 15.069C14.2433 15.0537 13.9827 15.0383 13.7833 15.023C13.5993 15.023 13.4153 15.0153 13.2313 15C13.0473 15 12.802 15 12.4953 15C11.8667 14.8773 11.33 14.655 10.8853 14.333C10.456 14.011 10.0343 13.5663 9.62034 12.999C9.191 12.4163 8.79234 11.826 8.42434 11.228C8.05634 10.63 7.696 10.0473 7.34334 9.48C7.144 9.158 6.937 8.928 6.72234 8.79C6.523 8.63667 6.13967 8.56 5.57234 8.56H4.90534V12.309C4.92067 12.6003 4.95134 12.884 4.99734 13.16C5.04334 13.4207 5.166 13.643 5.36534 13.827C5.58 13.9957 5.925 14.08 6.40034 14.08C6.55367 14.08 6.684 14.0953 6.79134 14.126C6.89867 14.1567 6.96 14.3023 6.97534 14.563C6.97534 14.6857 6.94467 14.8007 6.88334 14.908C6.822 15.0153 6.71467 15.069 6.56134 15.069C5.58 15.023 4.62167 15 3.68634 15C3.22634 15 2.78167 15 2.35234 15C1.923 15.0153 1.463 15.0383 0.972336 15.069ZM4.90534 7.663H6.92934C7.71134 7.663 8.32467 7.55567 8.76934 7.341C9.22934 7.12633 9.57434 6.85033 9.80434 6.513C10.0343 6.17567 10.18 5.823 10.2413 5.455C10.318 5.087 10.3563 4.74967 10.3563 4.443C10.3563 3.937 10.2413 3.44633 10.0113 2.971C9.79667 2.49567 9.40567 2.10467 8.83834 1.798C8.28634 1.49133 7.512 1.338 6.51534 1.338C5.856 1.338 5.419 1.46833 5.20434 1.729C5.005 1.97433 4.90534 2.48033 4.90534 3.247V7.663ZM16.403 15.069C16.2497 15.069 16.1423 15.0153 16.081 14.908C16.0197 14.8007 15.989 14.6857 15.989 14.563C16.0043 14.3023 16.0657 14.1567 16.173 14.126C16.2803 14.0953 16.4107 14.08 16.564 14.08C17.0547 14.08 17.3997 13.9957 17.599 13.827C17.7983 13.643 17.921 13.4207 17.967 13.16C18.0283 12.884 18.059 12.6003 18.059 12.309V3.201C18.059 2.90967 18.0283 2.626 17.967 2.35C17.921 2.074 17.7983 1.85167 17.599 1.683C17.3997 1.499 17.0547 1.407 16.564 1.407C16.4107 1.407 16.2803 1.39167 16.173 1.361C16.0657 1.33033 16.0043 1.18467 15.989 0.923999C15.989 0.801333 16.0197 0.686333 16.081 0.578999C16.1423 0.471666 16.2497 0.418 16.403 0.418C16.8937 0.433333 17.3537 0.448666 17.783 0.463999C18.2277 0.479332 18.68 0.486999 19.14 0.486999H23.096C24.338 0.502332 25.3423 0.693999 26.109 1.062C26.891 1.43 27.4583 1.89767 27.811 2.465C28.1637 3.03233 28.34 3.62267 28.34 4.236C28.34 5.04867 28.0103 5.81533 27.351 6.536C26.707 7.25667 25.7947 7.77033 24.614 8.077C25.1967 8.997 25.787 9.92467 26.385 10.86C26.983 11.78 27.673 12.6463 28.455 13.459C28.6697 13.6277 28.8767 13.7657 29.076 13.873C29.2907 13.9803 29.5437 14.0493 29.835 14.08C29.9577 14.0953 30.0803 14.1183 30.203 14.149C30.3257 14.1643 30.3947 14.3023 30.41 14.563C30.41 14.6857 30.3793 14.8007 30.318 14.908C30.2567 15.0153 30.1493 15.069 29.996 15.069C29.674 15.0537 29.4133 15.0383 29.214 15.023C29.03 15.023 28.846 15.0153 28.662 15C28.478 15 28.2327 15 27.926 15C27.2973 14.8773 26.7607 14.655 26.316 14.333C25.8867 14.011 25.465 13.5663 25.051 12.999C24.6217 12.4163 24.223 11.826 23.855 11.228C23.487 10.63 23.1267 10.0473 22.774 9.48C22.5747 9.158 22.3677 8.928 22.153 8.79C21.9537 8.63667 21.5703 8.56 21.003 8.56H20.336V12.309C20.3513 12.6003 20.382 12.884 20.428 13.16C20.474 13.4207 20.5967 13.643 20.796 13.827C21.0107 13.9957 21.3557 14.08 21.831 14.08C21.9843 14.08 22.1147 14.0953 22.222 14.126C22.3293 14.1567 22.3907 14.3023 22.406 14.563C22.406 14.6857 22.3753 14.8007 22.314 14.908C22.2527 15.0153 22.1453 15.069 21.992 15.069C21.0107 15.023 20.0523 15 19.117 15C18.657 15 18.2123 15 17.783 15C17.3537 15.0153 16.8937 15.0383 16.403 15.069ZM20.336 7.663H22.36C23.142 7.663 23.7553 7.55567 24.2 7.341C24.66 7.12633 25.005 6.85033 25.235 6.513C25.465 6.17567 25.6107 5.823 25.672 5.455C25.7487 5.087 25.787 4.74967 25.787 4.443C25.787 3.937 25.672 3.44633 25.442 2.971C25.2273 2.49567 24.8363 2.10467 24.269 1.798C23.717 1.49133 22.9427 1.338 21.946 1.338C21.2867 1.338 20.8497 1.46833 20.635 1.729C20.4357 1.97433 20.336 2.48033 20.336 3.247V7.663Z" fill="black"/>
</svg>
