<svg width="25" height="24" viewBox="0 0 25 24" fill="none" xmlns="http://www.w3.org/2000/svg">
<path d="M2.55115 2.05H4.5966L7.31706 14.47C7.41685 14.9249 7.6757 15.3315 8.04903 15.6199C8.42237 15.9082 8.88685 16.0603 9.36251 16.05H19.3648C19.8303 16.0493 20.2816 15.8933 20.6442 15.6078C21.0068 15.3224 21.259 14.9245 21.3591 14.48L23.0466 7.05H5.69092M9.6591 21C9.6591 21.5523 9.20121 22 8.63637 22C8.07154 22 7.61365 21.5523 7.61365 21C7.61365 20.4477 8.07154 20 8.63637 20C9.20121 20 9.6591 20.4477 9.6591 21ZM20.9091 21C20.9091 21.5523 20.4512 22 19.8864 22C19.3215 22 18.8636 21.5523 18.8636 21C18.8636 20.4477 19.3215 20 19.8864 20C20.4512 20 20.9091 20.4477 20.9091 21Z" stroke="black" stroke-width="2" stroke-linecap="round" stroke-linejoin="round"/>
</svg>
