<svg width="25" height="24" viewBox="0 0 25 24" fill="none" xmlns="http://www.w3.org/2000/svg">
<path d="M12.9653 0C6.33063 0 0.955811 5.37135 0.955811 12C0.955811 18.6286 6.3314 24 12.9653 24C19.5999 24 24.9748 18.6286 24.9748 12C24.9748 5.37135 19.5992 0 12.9653 0ZM18.8639 8.22116L16.8928 17.5022C16.7471 18.1603 16.3551 18.3197 15.808 18.0101L12.8057 15.799L11.3576 17.1925C11.198 17.352 11.0624 17.4875 10.7524 17.4875L10.9655 14.4341L16.5294 9.4111C16.7719 9.19819 16.4759 9.07742 16.1559 9.29032L9.27954 13.6157L6.31591 12.6914C5.67205 12.4885 5.65732 12.048 6.4515 11.7383L18.0302 7.27665C18.5679 7.0831 19.0374 7.40748 18.8631 8.22039L18.8639 8.22116Z" fill="black"/>
</svg>
