<svg width="25" height="24" viewBox="0 0 25 24" fill="none" xmlns="http://www.w3.org/2000/svg">
<path d="M12.3979 0.959961C18.4953 0.959961 23.4379 5.90252 23.4379 12C23.4379 18.0974 18.4953 23.04 12.3979 23.04C6.30047 23.04 1.35791 18.0974 1.35791 12C1.35791 5.90252 6.30047 0.959961 12.3979 0.959961ZM16.2062 16.5C16.4093 15.8769 17.3606 9.66764 17.4782 8.44412C17.5137 8.07356 17.3966 7.82732 17.1672 7.7174C16.8898 7.58396 16.4789 7.65068 16.0022 7.82252C15.3485 8.0582 6.99071 11.6068 6.50783 11.8123C6.04991 12.0067 5.61695 12.2188 5.61695 12.526C5.61695 12.742 5.74511 12.8635 6.09839 12.9897C6.46607 13.1208 7.39199 13.4016 7.93871 13.5523C8.46527 13.6977 9.06479 13.5715 9.40079 13.3627C9.75695 13.1414 13.8672 10.391 14.1624 10.15C14.4571 9.90908 14.6923 10.2177 14.4513 10.4592C14.2104 10.7001 11.3889 13.4385 11.0169 13.8177C10.5653 14.278 10.8859 14.7552 11.1888 14.9462C11.5349 15.1641 14.0237 16.8336 14.3985 17.1014C14.7734 17.3692 15.1536 17.4907 15.5016 17.4907C15.8496 17.4907 16.0329 17.0323 16.2062 16.5Z" fill="black"/>
</svg>
