<svg width="25" height="24" viewBox="0 0 25 24" fill="none" xmlns="http://www.w3.org/2000/svg">
<path fill-rule="evenodd" clip-rule="evenodd" d="M12.94 0C6.30737 0 0.930542 5.37258 0.930542 12C0.930542 18.6275 6.30737 24 12.94 24C19.5726 24 24.9495 18.6275 24.9495 12C24.9495 5.37258 19.5726 0 12.94 0ZM15.2805 6C15.2805 6.17831 15.2972 6.35393 15.3279 6.52388C15.4756 7.30955 15.9409 7.98375 16.5873 8.40443C17.0386 8.69978 17.5736 8.86972 18.1502 8.86972L18.1501 9.32947V10.9315C17.0803 10.9315 16.0884 10.5888 15.2805 10.0093V14.2024C15.2805 16.2949 13.5755 18 11.4832 18C10.6753 18 9.92301 17.7436 9.3073 17.3118C8.32663 16.6236 7.68587 15.4868 7.68587 14.2024C7.68587 12.1072 9.38814 10.4049 11.4804 10.4077C11.6559 10.4077 11.8259 10.4216 11.9931 10.4439V10.9315L11.9869 10.9344L11.993 10.9343V12.5503C11.8315 12.5001 11.6587 12.4694 11.4804 12.4694C10.5248 12.4694 9.74752 13.2468 9.74752 14.2024C9.74752 14.8684 10.1264 15.445 10.678 15.7376C10.6832 15.7447 10.6884 15.7517 10.6936 15.7587L10.7029 15.7708C10.6966 15.7586 10.6892 15.7466 10.6808 15.7348C10.9232 15.863 11.1962 15.9355 11.486 15.9355C12.4193 15.9355 13.1827 15.1916 13.2161 14.2666L13.2189 6H15.2805Z" fill="black"/>
</svg>
