<svg width="25" height="24" viewBox="0 0 25 24" fill="none" xmlns="http://www.w3.org/2000/svg">
<path d="M12.3979 0.959961C6.31055 0.959961 1.35791 5.9126 1.35791 12C1.35791 18.0873 6.31055 23.04 12.3979 23.04C18.4857 23.04 23.4379 18.0873 23.4379 12C23.4379 5.9126 18.4857 0.959961 12.3979 0.959961ZM17.1849 14.1768C18.2587 15.13 18.4819 15.4704 18.5184 15.5284C18.9633 16.234 18.0249 16.32 18.0249 16.32H16.0474C16.0474 16.32 15.5659 16.3252 15.1545 16.0526C14.484 15.6134 13.7817 14.7619 13.2883 14.9097C12.8741 15.0336 12.8779 15.5932 12.8779 16.0718C12.8779 16.2432 12.7305 16.32 12.3979 16.32C12.0653 16.32 11.927 16.32 11.7797 16.32C10.6963 16.32 9.52079 15.9552 8.34815 14.7297C6.68927 12.9974 5.23439 9.5078 5.23439 9.5078C5.23439 9.5078 5.14847 9.33212 5.24207 9.22508C5.34815 9.10508 5.63663 9.12044 5.63663 9.12044L7.55423 9.11996C7.55423 9.11996 7.73471 9.15404 7.86431 9.24524C7.97135 9.32012 8.03087 9.46316 8.03087 9.46316C8.03087 9.46316 8.35295 10.5268 8.76335 11.2051C9.56495 12.5289 9.93791 12.5625 10.2101 12.42C10.6075 12.2136 10.4779 10.8062 10.4779 10.8062C10.4779 10.8062 10.4957 10.2019 10.2883 9.9326C10.1285 9.72428 9.82271 9.6134 9.68927 9.59612C9.58127 9.5822 9.76175 9.39308 9.99167 9.28508C10.2989 9.14828 10.7169 9.11324 11.4379 9.11996C11.999 9.12524 12.1608 9.15884 12.3797 9.20924C13.0416 9.36188 12.8779 9.7646 12.8779 11.1787C12.8779 11.6318 12.8155 12.2688 13.1573 12.48C13.3046 12.5712 13.8096 12.6825 14.7081 11.2233C15.1349 10.5312 15.4742 9.383 15.4742 9.383C15.4742 9.383 15.5443 9.25676 15.6533 9.19436C15.7646 9.13052 15.7613 9.13196 15.9139 9.13196C16.0666 9.13196 17.5973 9.11996 17.9333 9.11996C18.2688 9.11996 18.5837 9.11612 18.6379 9.31292C18.7157 9.59564 18.3902 10.5643 17.5656 11.6155C16.2105 13.3406 16.0603 13.1793 17.1849 14.1768Z" fill="black"/>
</svg>
