<svg width="25" height="24" viewBox="0 0 25 24" fill="none" xmlns="http://www.w3.org/2000/svg">
<path d="M12.398 0.959961C6.31062 0.959961 1.35798 5.9126 1.35798 12C1.35798 13.9008 1.84902 15.7699 2.78022 17.4192L1.37574 22.4304C1.32966 22.595 1.3743 22.7716 1.49334 22.894C1.58502 22.9886 1.70982 23.04 1.83798 23.04C1.87638 23.04 1.91526 23.0352 1.95318 23.026L7.18326 21.7305C8.78022 22.5878 10.5788 23.04 12.398 23.04C18.4853 23.04 23.438 18.0873 23.438 12C23.438 5.9126 18.4853 0.959961 12.398 0.959961ZM17.9516 15.8956C17.7154 16.5494 16.5826 17.146 16.0383 17.2262C15.5497 17.2977 14.9314 17.3284 14.2527 17.1153C13.8413 16.9857 13.3133 16.8139 12.637 16.5254C9.79398 15.3129 7.93734 12.4862 7.79526 12.2995C7.65366 12.1128 6.63798 10.7822 6.63798 9.40508C6.63798 8.02796 7.36998 7.35068 7.63014 7.07036C7.8903 6.79004 8.19702 6.71996 8.38614 6.71996C8.57526 6.71996 8.7639 6.72236 8.9295 6.73004C9.10374 6.73868 9.3375 6.66428 9.56742 7.21052C9.80358 7.77116 10.3705 9.14828 10.4405 9.28892C10.5116 9.42908 10.5586 9.59276 10.4645 9.77948C10.3705 9.9662 10.3234 10.0828 10.1813 10.2465C10.0393 10.4102 9.88374 10.6113 9.75606 10.7371C9.61398 10.8768 9.46662 11.028 9.63174 11.3083C9.79686 11.5886 10.3657 12.5049 11.2085 13.247C12.2909 14.2003 13.2044 14.496 13.4876 14.6361C13.7708 14.7763 13.9364 14.7528 14.1015 14.566C14.2666 14.3788 14.81 13.7486 14.9986 13.4688C15.1873 13.1889 15.3764 13.235 15.6365 13.3286C15.8967 13.4217 17.2901 14.0985 17.5733 14.2387C17.8565 14.3788 18.0457 14.4489 18.1167 14.5656C18.1877 14.6817 18.1877 15.2424 17.9516 15.8956Z" fill="black"/>
</svg>
