<svg width="226" height="76" viewBox="0 0 226 76" fill="none" xmlns="http://www.w3.org/2000/svg">
<rect x="0.517212" y="0.179871" width="224.966" height="75.8202" rx="30" fill="white"/>
<path d="M67.9073 44.3557C67.7739 44.3557 67.6806 44.309 67.6273 44.2157C67.5739 44.1223 67.5473 44.0223 67.5473 43.9157C67.5606 43.689 67.6139 43.5623 67.7073 43.5357C67.8006 43.509 67.9139 43.4957 68.0473 43.4957C68.4739 43.4957 68.7739 43.4223 68.9473 43.2757C69.1206 43.1157 69.2273 42.9223 69.2673 42.6957C69.3206 42.4557 69.3473 42.209 69.3473 41.9557V34.0157C69.3473 33.7623 69.3206 33.5223 69.2673 33.2957C69.2273 33.0557 69.1206 32.8623 68.9473 32.7157C68.7739 32.5557 68.4739 32.4757 68.0473 32.4757C67.9139 32.4757 67.8006 32.4623 67.7073 32.4357C67.6139 32.409 67.5606 32.2823 67.5473 32.0557C67.5473 31.949 67.5739 31.849 67.6273 31.7557C67.6806 31.6623 67.7739 31.6157 67.9073 31.6157C68.3339 31.629 68.7339 31.6423 69.1073 31.6557C69.4806 31.669 69.8673 31.6757 70.2673 31.6757H78.0473C78.8473 31.6757 79.6739 31.6557 80.5273 31.6157C80.6473 31.6157 80.7339 31.6623 80.7873 31.7557C80.8539 31.849 80.8873 31.949 80.8873 32.0557C80.8739 32.2823 80.8206 32.409 80.7273 32.4357C80.6339 32.4623 80.5139 32.4757 80.3673 32.4757C79.9539 32.4757 79.6539 32.5557 79.4673 32.7157C79.2939 32.8623 79.1873 33.0557 79.1473 33.2957C79.1073 33.5223 79.0806 33.7623 79.0673 34.0157V41.9557C79.0806 42.209 79.1073 42.4557 79.1473 42.6957C79.1873 42.9223 79.2939 43.1157 79.4673 43.2757C79.6539 43.4223 79.9539 43.4957 80.3673 43.4957C80.5139 43.4957 80.6339 43.509 80.7273 43.5357C80.8206 43.5623 80.8739 43.689 80.8873 43.9157C80.8873 44.0223 80.8539 44.1223 80.7873 44.2157C80.7339 44.309 80.6473 44.3557 80.5273 44.3557C79.6739 44.3157 78.8406 44.2957 78.0273 44.2957C77.6273 44.2957 77.2339 44.2957 76.8473 44.2957C76.4739 44.309 76.0739 44.329 75.6473 44.3557C75.5139 44.3557 75.4206 44.309 75.3673 44.2157C75.3139 44.1223 75.2873 44.0223 75.2873 43.9157C75.3006 43.689 75.3539 43.5623 75.4473 43.5357C75.5406 43.509 75.6539 43.4957 75.7873 43.4957C76.2139 43.4957 76.5139 43.4223 76.6873 43.2757C76.8606 43.1157 76.9673 42.9223 77.0073 42.6957C77.0606 42.4557 77.0939 42.209 77.1073 41.9557V32.4757H72.6273C72.1739 32.449 71.8539 32.509 71.6673 32.6557C71.4939 32.8023 71.3939 32.9957 71.3673 33.2357C71.3406 33.4757 71.3273 33.7357 71.3273 34.0157V41.9557C71.3406 42.209 71.3673 42.4557 71.4073 42.6957C71.4473 42.9223 71.5539 43.1157 71.7273 43.2757C71.9139 43.4223 72.2139 43.4957 72.6273 43.4957C72.7739 43.4957 72.8873 43.509 72.9673 43.5357C73.0606 43.5623 73.1139 43.689 73.1273 43.9157C73.1273 44.0223 73.1006 44.1223 73.0473 44.2157C72.9939 44.309 72.9006 44.3557 72.7673 44.3557C71.9139 44.3157 71.0873 44.2957 70.2873 44.2957C69.8873 44.2957 69.4939 44.2957 69.1073 44.2957C68.7339 44.309 68.3339 44.329 67.9073 44.3557ZM83.0984 44.3557C82.9784 44.3557 82.8917 44.309 82.8384 44.2157C82.785 44.1223 82.7584 44.0223 82.7584 43.9157C82.7717 43.689 82.825 43.5623 82.9184 43.5357C83.0117 43.509 83.125 43.4957 83.2584 43.4957C83.685 43.4957 83.985 43.4223 84.1584 43.2757C84.3317 43.1157 84.4384 42.9223 84.4784 42.6957C84.5317 42.4557 84.5584 42.209 84.5584 41.9557V34.0157C84.5584 33.7623 84.5317 33.5223 84.4784 33.2957C84.4384 33.0557 84.3317 32.8623 84.1584 32.7157C83.985 32.5557 83.685 32.4757 83.2584 32.4757C83.125 32.4757 83.0117 32.4623 82.9184 32.4357C82.825 32.409 82.7717 32.2823 82.7584 32.0557C82.7584 31.949 82.785 31.849 82.8384 31.7557C82.8917 31.6623 82.9784 31.6157 83.0984 31.6157C83.5384 31.629 83.945 31.6423 84.3184 31.6557C84.6917 31.669 85.0784 31.6757 85.4784 31.6757H91.7584C91.905 31.6757 92.025 31.709 92.1184 31.7757C92.225 31.8423 92.2784 31.969 92.2784 32.1557L92.3384 34.9557C92.3384 35.089 92.2717 35.189 92.1384 35.2557C92.0184 35.3223 91.905 35.3557 91.7984 35.3557C91.6517 35.3557 91.5184 35.329 91.3984 35.2757C91.2784 35.209 91.205 35.1157 91.1784 34.9957C91.085 34.3957 90.9717 33.9157 90.8384 33.5557C90.7184 33.1823 90.5317 32.9157 90.2784 32.7557C90.0384 32.5823 89.685 32.489 89.2184 32.4757H86.5384V37.5557H90.1584C90.265 37.569 90.3384 37.6223 90.3784 37.7157C90.4317 37.809 90.4584 37.909 90.4584 38.0157C90.4584 38.109 90.4317 38.2023 90.3784 38.2957C90.3384 38.3757 90.265 38.4157 90.1584 38.4157H86.5384V42.1957C86.5517 42.369 86.5784 42.5623 86.6184 42.7757C86.6584 42.9757 86.7717 43.149 86.9584 43.2957C87.1584 43.4423 87.485 43.509 87.9384 43.4957H89.7784C90.245 43.4823 90.5984 43.409 90.8384 43.2757C91.0917 43.129 91.2917 42.889 91.4384 42.5557C91.585 42.2223 91.745 41.7623 91.9184 41.1757C91.9717 41.0423 92.0584 40.9557 92.1784 40.9157C92.3117 40.8757 92.4517 40.869 92.5984 40.8957C92.705 40.909 92.8117 40.9557 92.9184 41.0357C93.0384 41.1157 93.0917 41.2223 93.0784 41.3557L92.6784 43.8757C92.6384 44.0623 92.5717 44.1823 92.4784 44.2357C92.3984 44.2757 92.2717 44.2957 92.0984 44.2957H85.4984C85.0984 44.2957 84.705 44.2957 84.3184 44.2957C83.945 44.309 83.5384 44.329 83.0984 44.3557ZM94.9734 44.3557C94.8534 44.3557 94.76 44.309 94.6934 44.2157C94.64 44.1223 94.6134 44.0223 94.6134 43.9157C94.6267 43.689 94.68 43.5623 94.7734 43.5357C94.88 43.509 95 43.4957 95.1334 43.4957C95.56 43.4957 95.86 43.4223 96.0334 43.2757C96.2067 43.1157 96.3134 42.9223 96.3534 42.6957C96.4067 42.4557 96.4334 42.209 96.4334 41.9557V34.0157C96.4334 33.7623 96.4067 33.5223 96.3534 33.2957C96.3134 33.0557 96.2067 32.8623 96.0334 32.7157C95.86 32.5557 95.56 32.4757 95.1334 32.4757C95 32.4757 94.88 32.4623 94.7734 32.4357C94.68 32.409 94.6267 32.2823 94.6134 32.0557C94.6134 31.949 94.64 31.849 94.6934 31.7557C94.76 31.6623 94.8534 31.6157 94.9734 31.6157C95.4 31.629 95.8067 31.6423 96.1934 31.6557C96.58 31.669 96.9734 31.6757 97.3734 31.6757H100.373C100.627 31.6757 100.953 31.6957 101.353 31.7357C101.767 31.7757 102.2 31.8557 102.653 31.9757C103.12 32.0957 103.56 32.289 103.973 32.5557C104.387 32.8223 104.72 33.1757 104.973 33.6157C105.24 34.0557 105.373 34.609 105.373 35.2757C105.373 35.9023 105.227 36.469 104.933 36.9757C104.653 37.4823 104.273 37.9157 103.793 38.2757C103.327 38.6357 102.793 38.9157 102.193 39.1157C101.607 39.3023 101.007 39.3957 100.393 39.3957C100.1 39.3957 99.78 39.3757 99.4334 39.3357C99.0867 39.2957 98.74 39.209 98.3934 39.0757V41.9557C98.4067 42.209 98.4334 42.4557 98.4734 42.6957C98.5134 42.9223 98.62 43.1157 98.7934 43.2757C98.98 43.4223 99.28 43.4957 99.6934 43.4957C99.84 43.4957 99.96 43.509 100.053 43.5357C100.147 43.5623 100.2 43.689 100.213 43.9157C100.213 44.0223 100.18 44.1223 100.113 44.2157C100.06 44.309 99.9734 44.3557 99.8534 44.3557C99 44.3157 98.1667 44.2957 97.3534 44.2957C96.9534 44.2957 96.56 44.2957 96.1734 44.2957C95.8 44.309 95.4 44.329 94.9734 44.3557ZM99.8134 38.4957C100.12 38.4957 100.46 38.449 100.833 38.3557C101.22 38.249 101.587 38.0823 101.933 37.8557C102.293 37.6157 102.587 37.2957 102.813 36.8957C103.04 36.4823 103.153 35.9623 103.153 35.3357C103.153 34.6557 103.02 34.1223 102.753 33.7357C102.487 33.3357 102.153 33.0423 101.753 32.8557C101.367 32.669 100.98 32.549 100.593 32.4957C100.207 32.4423 99.8934 32.4157 99.6534 32.4157C99.3334 32.4157 99.08 32.449 98.8934 32.5157C98.7067 32.5823 98.5734 32.729 98.4934 32.9557C98.4267 33.169 98.3934 33.5023 98.3934 33.9557V38.2757C98.5267 38.329 98.72 38.3823 98.9734 38.4357C99.2267 38.4757 99.5067 38.4957 99.8134 38.4957ZM106.907 44.3557C106.787 44.3557 106.7 44.309 106.647 44.2157C106.594 44.1223 106.567 44.0223 106.567 43.9157C106.58 43.689 106.634 43.5623 106.727 43.5357C106.82 43.509 106.934 43.4957 107.067 43.4957C107.494 43.4957 107.794 43.4223 107.967 43.2757C108.14 43.1157 108.247 42.9223 108.287 42.6957C108.34 42.4557 108.367 42.209 108.367 41.9557V34.0157C108.367 33.7623 108.34 33.5223 108.287 33.2957C108.247 33.0557 108.14 32.8623 107.967 32.7157C107.794 32.5557 107.494 32.4757 107.067 32.4757C106.934 32.4757 106.82 32.4623 106.727 32.4357C106.634 32.409 106.58 32.2823 106.567 32.0557C106.567 31.949 106.594 31.849 106.647 31.7557C106.7 31.6623 106.787 31.6157 106.907 31.6157C107.347 31.629 107.754 31.6423 108.127 31.6557C108.5 31.669 108.887 31.6757 109.287 31.6757H115.567C115.714 31.6757 115.834 31.709 115.927 31.7757C116.034 31.8423 116.087 31.969 116.087 32.1557L116.147 34.9557C116.147 35.089 116.08 35.189 115.947 35.2557C115.827 35.3223 115.714 35.3557 115.607 35.3557C115.46 35.3557 115.327 35.329 115.207 35.2757C115.087 35.209 115.014 35.1157 114.987 34.9957C114.894 34.3957 114.78 33.9157 114.647 33.5557C114.527 33.1823 114.34 32.9157 114.087 32.7557C113.847 32.5823 113.494 32.489 113.027 32.4757H110.347V37.5557H113.967C114.074 37.569 114.147 37.6223 114.187 37.7157C114.24 37.809 114.267 37.909 114.267 38.0157C114.267 38.109 114.24 38.2023 114.187 38.2957C114.147 38.3757 114.074 38.4157 113.967 38.4157H110.347V42.1957C110.36 42.369 110.387 42.5623 110.427 42.7757C110.467 42.9757 110.58 43.149 110.767 43.2957C110.967 43.4423 111.294 43.509 111.747 43.4957H113.587C114.054 43.4823 114.407 43.409 114.647 43.2757C114.9 43.129 115.1 42.889 115.247 42.5557C115.394 42.2223 115.554 41.7623 115.727 41.1757C115.78 41.0423 115.867 40.9557 115.987 40.9157C116.12 40.8757 116.26 40.869 116.407 40.8957C116.514 40.909 116.62 40.9557 116.727 41.0357C116.847 41.1157 116.9 41.2223 116.887 41.3557L116.487 43.8757C116.447 44.0623 116.38 44.1823 116.287 44.2357C116.207 44.2757 116.08 44.2957 115.907 44.2957H109.307C108.907 44.2957 108.514 44.2957 108.127 44.2957C107.754 44.309 107.347 44.329 106.907 44.3557ZM118.962 44.3557C118.829 44.3423 118.735 44.2957 118.682 44.2157C118.629 44.1223 118.602 44.0223 118.602 43.9157C118.615 43.689 118.669 43.5623 118.762 43.5357C118.855 43.509 118.969 43.4957 119.102 43.4957C119.529 43.4957 119.829 43.4223 120.002 43.2757C120.175 43.1157 120.282 42.9223 120.322 42.6957C120.375 42.4557 120.402 42.209 120.402 41.9557V34.0157C120.402 33.7623 120.375 33.5223 120.322 33.2957C120.282 33.0557 120.175 32.8623 120.002 32.7157C119.829 32.5557 119.529 32.4757 119.102 32.4757C118.969 32.4757 118.855 32.4623 118.762 32.4357C118.669 32.409 118.615 32.2823 118.602 32.0557C118.602 31.949 118.629 31.849 118.682 31.7557C118.735 31.6623 118.829 31.6157 118.962 31.6157C119.389 31.629 119.789 31.6423 120.162 31.6557C120.535 31.669 120.922 31.6757 121.322 31.6757C122.135 31.6757 122.969 31.6557 123.822 31.6157C123.955 31.6157 124.049 31.6623 124.102 31.7557C124.155 31.849 124.182 31.949 124.182 32.0557C124.169 32.2823 124.115 32.409 124.022 32.4357C123.942 32.4623 123.829 32.4757 123.682 32.4757C123.269 32.4757 122.969 32.5557 122.782 32.7157C122.609 32.8623 122.502 33.0557 122.462 33.2957C122.422 33.5223 122.395 33.7623 122.382 34.0157V41.0957L128.122 33.8557C128.629 33.229 129.029 32.7623 129.322 32.4557C129.615 32.149 129.875 31.9423 130.102 31.8357C130.329 31.729 130.582 31.669 130.862 31.6557C131.102 31.629 131.295 31.6157 131.442 31.6157C131.602 31.6157 131.749 31.6157 131.882 31.6157C132.029 31.6157 132.122 31.6623 132.162 31.7557C132.215 31.849 132.242 31.949 132.242 32.0557C132.229 32.2823 132.175 32.409 132.082 32.4357C132.002 32.4623 131.889 32.4757 131.742 32.4757C131.329 32.4757 131.029 32.5557 130.842 32.7157C130.669 32.8623 130.562 33.0557 130.522 33.2957C130.482 33.5223 130.455 33.7623 130.442 34.0157V41.9557C130.455 42.209 130.482 42.4557 130.522 42.6957C130.562 42.9223 130.669 43.1157 130.842 43.2757C131.029 43.4223 131.329 43.4957 131.742 43.4957C131.889 43.4957 132.002 43.509 132.082 43.5357C132.175 43.5623 132.229 43.689 132.242 43.9157C132.242 44.0223 132.215 44.1223 132.162 44.2157C132.109 44.309 132.015 44.3557 131.882 44.3557C131.455 44.329 131.055 44.309 130.682 44.2957C130.309 44.2957 129.922 44.2957 129.522 44.2957C128.735 44.2957 127.909 44.3157 127.042 44.3557C126.909 44.3557 126.815 44.309 126.762 44.2157C126.709 44.1223 126.682 44.0223 126.682 43.9157C126.695 43.689 126.749 43.5623 126.842 43.5357C126.935 43.509 127.049 43.4957 127.182 43.4957C127.609 43.4957 127.909 43.4223 128.082 43.2757C128.255 43.1157 128.362 42.9223 128.402 42.6957C128.455 42.4557 128.482 42.209 128.482 41.9557V34.8957L122.722 42.0957C122.255 42.669 121.875 43.1157 121.582 43.4357C121.302 43.7423 121.055 43.9623 120.842 44.0957C120.629 44.2157 120.389 44.289 120.122 44.3157C119.922 44.329 119.722 44.3423 119.522 44.3557C119.335 44.369 119.149 44.369 118.962 44.3557ZM128.282 27.3757C128.562 27.3757 128.795 27.4623 128.982 27.6357C129.169 27.809 129.262 28.0623 129.262 28.3957C129.262 28.8757 129.075 29.2757 128.702 29.5957C128.329 29.9023 127.849 30.1357 127.262 30.2957C126.675 30.4423 126.062 30.5157 125.422 30.5157C124.795 30.5157 124.182 30.4423 123.582 30.2957C122.995 30.1357 122.515 29.9023 122.142 29.5957C121.769 29.2757 121.582 28.8757 121.582 28.3957C121.582 28.0623 121.675 27.809 121.862 27.6357C122.049 27.4623 122.282 27.3757 122.562 27.3757C122.842 27.3757 123.062 27.4623 123.222 27.6357C123.395 27.7957 123.542 27.9957 123.662 28.2357C123.782 28.4757 123.909 28.7223 124.042 28.9757C124.175 29.2157 124.349 29.4223 124.562 29.5957C124.775 29.7557 125.062 29.8357 125.422 29.8357C125.782 29.8357 126.069 29.7557 126.282 29.5957C126.495 29.4223 126.669 29.2157 126.802 28.9757C126.935 28.7223 127.062 28.4757 127.182 28.2357C127.302 27.9957 127.442 27.7957 127.602 27.6357C127.775 27.4623 128.002 27.3757 128.282 27.3757ZM136.611 44.3557C136.478 44.3557 136.385 44.309 136.331 44.2157C136.278 44.1223 136.251 44.0223 136.251 43.9157C136.265 43.689 136.318 43.5623 136.411 43.5357C136.505 43.509 136.618 43.4957 136.751 43.4957C137.178 43.4957 137.478 43.4223 137.651 43.2757C137.825 43.1157 137.931 42.9223 137.971 42.6957C138.025 42.4557 138.051 42.209 138.051 41.9557V32.4157H136.671C136.218 32.429 135.865 32.529 135.611 32.7157C135.358 32.889 135.171 33.169 135.051 33.5557C134.931 33.929 134.825 34.4157 134.731 35.0157C134.718 35.1357 134.631 35.229 134.471 35.2957C134.325 35.349 134.178 35.3757 134.031 35.3757C133.938 35.3757 133.831 35.3423 133.711 35.2757C133.605 35.209 133.551 35.109 133.551 34.9757L133.611 32.1557C133.611 31.969 133.665 31.8423 133.771 31.7757C133.878 31.709 134.005 31.6757 134.151 31.6757H143.931C144.078 31.6757 144.198 31.709 144.291 31.7757C144.398 31.8423 144.451 31.969 144.451 32.1557L144.531 34.9757C144.531 35.109 144.471 35.209 144.351 35.2757C144.245 35.3423 144.138 35.3757 144.031 35.3757C143.898 35.3757 143.758 35.349 143.611 35.2957C143.465 35.229 143.378 35.1357 143.351 35.0157C143.258 34.4157 143.145 33.929 143.011 33.5557C142.891 33.169 142.705 32.889 142.451 32.7157C142.211 32.529 141.858 32.429 141.391 32.4157H140.031V41.9557C140.045 42.209 140.071 42.4557 140.111 42.6957C140.151 42.9223 140.258 43.1157 140.431 43.2757C140.618 43.4223 140.918 43.4957 141.331 43.4957C141.465 43.4957 141.578 43.509 141.671 43.5357C141.765 43.5623 141.818 43.689 141.831 43.9157C141.831 44.0223 141.805 44.1223 141.751 44.2157C141.698 44.309 141.605 44.3557 141.471 44.3557C141.045 44.329 140.638 44.309 140.251 44.2957C139.878 44.2957 139.498 44.2957 139.111 44.2957C138.311 44.2957 137.478 44.3157 136.611 44.3557ZM146.169 44.3557C146.036 44.3423 145.942 44.2957 145.889 44.2157C145.836 44.1223 145.809 44.0223 145.809 43.9157C145.822 43.689 145.876 43.5623 145.969 43.5357C146.062 43.509 146.176 43.4957 146.309 43.4957C146.736 43.4957 147.036 43.4223 147.209 43.2757C147.382 43.1157 147.489 42.9223 147.529 42.6957C147.582 42.4557 147.609 42.209 147.609 41.9557V34.0157C147.609 33.7623 147.582 33.5223 147.529 33.2957C147.489 33.0557 147.382 32.8623 147.209 32.7157C147.036 32.5557 146.736 32.4757 146.309 32.4757C146.176 32.4757 146.062 32.4623 145.969 32.4357C145.876 32.409 145.822 32.2823 145.809 32.0557C145.809 31.949 145.836 31.849 145.889 31.7557C145.942 31.6623 146.036 31.6157 146.169 31.6157C146.596 31.629 146.996 31.6423 147.369 31.6557C147.742 31.669 148.129 31.6757 148.529 31.6757C149.342 31.6757 150.176 31.6557 151.029 31.6157C151.162 31.6157 151.256 31.6623 151.309 31.7557C151.362 31.849 151.389 31.949 151.389 32.0557C151.376 32.2823 151.322 32.409 151.229 32.4357C151.149 32.4623 151.036 32.4757 150.889 32.4757C150.476 32.4757 150.176 32.5557 149.989 32.7157C149.816 32.8623 149.709 33.0557 149.669 33.2957C149.629 33.5223 149.602 33.7623 149.589 34.0157V41.0957L155.329 33.8557C155.836 33.229 156.236 32.7623 156.529 32.4557C156.822 32.149 157.082 31.9423 157.309 31.8357C157.536 31.729 157.789 31.669 158.069 31.6557C158.309 31.629 158.502 31.6157 158.649 31.6157C158.809 31.6157 158.956 31.6157 159.089 31.6157C159.236 31.6157 159.329 31.6623 159.369 31.7557C159.422 31.849 159.449 31.949 159.449 32.0557C159.436 32.2823 159.382 32.409 159.289 32.4357C159.209 32.4623 159.096 32.4757 158.949 32.4757C158.536 32.4757 158.236 32.5557 158.049 32.7157C157.876 32.8623 157.769 33.0557 157.729 33.2957C157.689 33.5223 157.662 33.7623 157.649 34.0157V41.9557C157.662 42.209 157.689 42.4557 157.729 42.6957C157.769 42.9223 157.876 43.1157 158.049 43.2757C158.236 43.4223 158.536 43.4957 158.949 43.4957C159.096 43.4957 159.209 43.509 159.289 43.5357C159.382 43.5623 159.436 43.689 159.449 43.9157C159.449 44.0223 159.422 44.1223 159.369 44.2157C159.316 44.309 159.222 44.3557 159.089 44.3557C158.662 44.329 158.262 44.309 157.889 44.2957C157.516 44.2957 157.129 44.2957 156.729 44.2957C155.942 44.2957 155.116 44.3157 154.249 44.3557C154.116 44.3557 154.022 44.309 153.969 44.2157C153.916 44.1223 153.889 44.0223 153.889 43.9157C153.902 43.689 153.956 43.5623 154.049 43.5357C154.142 43.509 154.256 43.4957 154.389 43.4957C154.816 43.4957 155.116 43.4223 155.289 43.2757C155.462 43.1157 155.569 42.9223 155.609 42.6957C155.662 42.4557 155.689 42.209 155.689 41.9557V34.8957L149.929 42.0957C149.462 42.669 149.082 43.1157 148.789 43.4357C148.509 43.7423 148.262 43.9623 148.049 44.0957C147.836 44.2157 147.596 44.289 147.329 44.3157C147.129 44.329 146.929 44.3423 146.729 44.3557C146.542 44.369 146.356 44.369 146.169 44.3557Z" fill="black"/>
</svg>
